<svg width="49" height="55" viewBox="0 0 49 55" fill="none" xmlns="http://www.w3.org/2000/svg">
<path d="M22.9999 51.4872C22.9999 52.882 24.1306 54.0127 25.5254 54.0127C26.9202 54.0127 28.0509 52.882 28.0509 51.4872H22.9999ZM28.0509 11.3958C28.0509 10.001 26.9202 8.87025 25.5254 8.87025C24.1306 8.87025 22.9999 10.001 22.9999 11.3958H28.0509ZM28.0509 51.4872V11.3958H22.9999V51.4872H28.0509Z" fill="#FFA600"/>
<path d="M28.092 40.0935C26.0716 41.8614 23.8829 48.4066 23.041 51.4583C23.2936 53.7312 24.8299 54.089 25.5665 53.9838C27.3344 53.9838 27.9868 52.3001 28.092 51.4583V40.0935Z" fill="black" fill-opacity="0.1"/>
<circle cx="34.2457" cy="21.9317" r="1.92025" fill="#4C6C8D" stroke="#4C6C8D" stroke-width="0.811007"/>
<circle cx="36.7711" cy="41.5044" r="1.92025" fill="#4C6C8D" stroke="#4C6C8D" stroke-width="0.811007"/>
<circle cx="17.2007" cy="45.2925" r="1.92025" fill="#4C6C8D" stroke="#4C6C8D" stroke-width="0.811007"/>
<circle cx="39.9273" cy="16.2495" r="1.92025" fill="#4C6C8D" stroke="#4C6C8D" stroke-width="0.811007"/>
<circle cx="15.3062" cy="38.3483" r="1.92025" fill="#4C6C8D" stroke="#4C6C8D" stroke-width="0.811007"/>
<path d="M3.50977 31.5989C3.50977 30.3784 4.49913 29.389 5.71958 29.389H20.5569C20.9056 29.389 21.1883 29.6717 21.1883 30.0204V33.1773C21.1883 33.526 20.9056 33.8087 20.5569 33.8087H5.71958C4.49913 33.8087 3.50977 32.8193 3.50977 31.5989Z" fill="#FFA600"/>
<path d="M48.0195 31.5989C48.0195 30.3784 47.0302 29.389 45.8097 29.389H30.9724C30.6237 29.389 30.341 29.6717 30.341 30.0204V33.1773C30.341 33.526 30.6237 33.8087 30.9724 33.8087H45.8097C47.0302 33.8087 48.0195 32.8193 48.0195 31.5989Z" fill="#FFA600"/>
<path d="M46.086 29.3591C40.7824 29.6117 35.8787 32.4108 34.0898 33.7788H46.086C47.6013 33.5262 47.9801 32.2003 47.9801 31.5689C47.9801 30.3062 46.7174 29.5696 46.086 29.3591Z" fill="black" fill-opacity="0.1"/>
<path d="M23.8685 21.3473C16.6988 33.2648 5.75853 34.41 1.1846 33.4928C2.47413 17.765 15.2748 10.3524 21.5139 8.61215C21.0403 7.83918 21.324 6.59087 21.525 6.06333C22.2675 4.51218 23.6048 4.30124 24.1807 4.38966L28.2207 6.00516C28.505 12.733 25.4377 19.0365 23.8685 21.3473Z" fill="white" fill-opacity="0.25"/>
<circle cx="15.3082" cy="21.9316" r="1.92025" fill="#4C6C8D" stroke="#4C6C8D" stroke-width="0.811007"/>
</svg>
