<svg width="76" height="76" viewBox="0 0 76 76" fill="none" xmlns="http://www.w3.org/2000/svg">
<rect width="76" height="76" rx="16.8889" fill="#EAEEF2"/>
<path d="M34.0018 57.4872C34.0018 58.882 35.1325 60.0127 36.5273 60.0127C37.9221 60.0127 39.0528 58.882 39.0528 57.4872H34.0018ZM39.0528 17.3958C39.0528 16.001 37.9221 14.8702 36.5273 14.8702C35.1325 14.8702 34.0018 16.001 34.0018 17.3958H39.0528ZM39.0528 57.4872V17.3958H34.0018V57.4872H39.0528Z" fill="#FFA600"/>
<path d="M39.093 46.0935C37.0726 47.8614 34.8838 54.4066 34.042 57.4583C34.2945 59.7312 35.8309 60.089 36.5675 59.9838C38.3353 59.9838 38.9878 58.3001 39.093 57.4583V46.0935Z" fill="black" fill-opacity="0.1"/>
<circle cx="45.2466" cy="27.9317" r="1.92025" fill="#4C6C8D" stroke="#4C6C8D" stroke-width="0.811007"/>
<circle cx="47.773" cy="47.5045" r="1.92025" fill="#4C6C8D" stroke="#4C6C8D" stroke-width="0.811007"/>
<circle cx="28.2017" cy="51.2925" r="1.92025" fill="#4C6C8D" stroke="#4C6C8D" stroke-width="0.811007"/>
<circle cx="50.9283" cy="22.2496" r="1.92025" fill="#4C6C8D" stroke="#4C6C8D" stroke-width="0.811007"/>
<circle cx="26.3072" cy="44.3482" r="1.92025" fill="#4C6C8D" stroke="#4C6C8D" stroke-width="0.811007"/>
<path d="M14.5088 37.599C14.5088 36.3785 15.4982 35.3892 16.7186 35.3892H31.5559C31.9046 35.3892 32.1873 35.6718 32.1873 36.0205V39.1774C32.1873 39.5261 31.9046 39.8088 31.5559 39.8088H16.7186C15.4982 39.8088 14.5088 38.8194 14.5088 37.599Z" fill="#FFA600"/>
<path d="M59.0205 37.599C59.0205 36.3785 58.0311 35.3892 56.8107 35.3892H41.9734C41.6247 35.3892 41.342 35.6718 41.342 36.0205V39.1774C41.342 39.5261 41.6247 39.8088 41.9734 39.8088H56.8107C58.0311 39.8088 59.0205 38.8194 59.0205 37.599Z" fill="#FFA600"/>
<path d="M57.086 35.3591C51.7824 35.6117 46.8787 38.4108 45.0898 39.7788H57.086C58.6013 39.5262 58.9801 38.2003 58.9801 37.5689C58.9801 36.3062 57.7174 35.5696 57.086 35.3591Z" fill="black" fill-opacity="0.1"/>
<path d="M34.8685 27.3473C27.6988 39.2648 16.7585 40.41 12.1846 39.4928C13.4741 23.765 26.2748 16.3524 32.5139 14.6121C32.0403 13.8392 32.324 12.5909 32.525 12.0633C33.2675 10.5122 34.6048 10.3012 35.1807 10.3897L39.2207 12.0052C39.505 18.733 36.4377 25.0365 34.8685 27.3473Z" fill="white" fill-opacity="0.25"/>
<circle cx="26.3082" cy="27.9317" r="1.92025" fill="#4C6C8D" stroke="#4C6C8D" stroke-width="0.811007"/>
</svg>
