<svg width="76" height="76" viewBox="0 0 76 76" fill="none" xmlns="http://www.w3.org/2000/svg">
<rect width="76" height="76" rx="16.8889" fill="#EAEEF2"/>
<path fill-rule="evenodd" clip-rule="evenodd" d="M27.4967 43.983C26.815 42.805 25.9459 41.7141 24.8474 40.8589H15.8687C14.4882 41.723 11.5817 45.1586 11 51.9874H29.7478C29.7475 51.9761 29.7472 51.9646 29.7469 51.9531H25.626C25.9053 48.6745 26.6246 46.0383 27.4967 43.983Z" fill="#4C6C8D"/>
<path d="M15.9297 40.8504C17.2048 43.0529 21.0387 46.3894 26.173 42.115C24.8557 40.3656 20.9628 37.6636 15.9297 40.8504Z" fill="#435E7A"/>
<circle cx="20.355" cy="36.2359" r="6.38627" fill="#FFA600"/>
<path d="M16.4968 41.7369C13.0317 44.8984 11.9336 49.8304 11.8177 51.9486H11.0273C11.6091 45.1703 14.505 41.7369 15.8961 40.8201L16.4968 41.7369Z" fill="#5B81A9"/>
<path d="M24.3091 38.6387C20.5406 42.8372 16.3948 40.8307 14.793 39.3026C15.4253 40.5419 16.3632 41.2522 16.7531 41.4524C21.3057 44.4559 24.4672 41.0098 24.8466 40.8201C28.2104 36.9504 26.3325 33.2009 24.9731 31.8098C26.4653 34.9207 25.1522 37.6586 24.3091 38.6387Z" fill="#DC9002"/>
<path d="M16.6708 31.9992C13.8634 34.3514 14.2365 37.8691 14.7739 39.3339C12.8264 35.8942 14.6968 32.7474 15.9614 31.5566C18.4906 29.1032 22.0104 29.8283 23.3593 30.5765C19.281 29.3435 17.1451 31.7779 16.6708 31.9992Z" fill="#FBC157"/>
<path fill-rule="evenodd" clip-rule="evenodd" d="M46.1171 51.9545H49.7679C49.7246 50.2549 49.2959 47.3203 48.1168 44.4407C49.1225 42.4659 50.2613 41.3114 50.983 40.8596H59.9617C63.7302 43.7935 64.7988 49.5011 64.8621 51.9882H46.1143C46.1152 51.9769 46.1162 51.9657 46.1171 51.9545Z" fill="#4C6C8D"/>
<path d="M51.0439 40.8511C52.3191 43.0536 56.153 46.3901 61.2873 42.1157C59.97 40.3664 56.0771 37.6643 51.0439 40.8511Z" fill="#435E7A"/>
<circle cx="55.4683" cy="36.2359" r="6.38627" fill="#FFA600"/>
<path d="M59.4166 38.6387C55.648 42.8372 51.5022 40.8307 49.9004 39.3026C50.5327 40.5419 51.4706 41.2522 51.8605 41.4524C56.4131 44.4559 59.5746 41.0098 59.954 40.8201C63.3179 36.9504 61.4399 33.2009 60.0805 31.8098C61.5727 34.9207 60.2596 37.6586 59.4166 38.6387Z" fill="#DC9002"/>
<path d="M51.6116 41.7072L51.0341 40.8218C49.9562 41.3453 48.6345 43.478 48.1084 44.4789L48.6473 45.8263C49.4173 44.1633 50.9443 42.3873 51.6116 41.7072Z" fill="#5B81A9"/>
<path d="M49.1497 51.9477H26.3213C27.0296 43.6325 30.5687 39.4492 32.2498 38.397H43.1828C47.7715 41.9694 49.0727 48.9194 49.1497 51.9477Z" fill="#4C6C8D"/>
<path d="M32.3281 38.397C33.8808 41.079 38.5492 45.1416 44.801 39.9369C43.197 37.8068 38.4568 34.5166 32.3281 38.397Z" fill="#435E7A"/>
<circle cx="37.7206" cy="32.7763" r="7.77629" fill="#FFA600"/>
<path d="M33.0202 39.4746C28.801 43.3242 27.4639 49.3297 27.3228 51.9089H26.3604C27.0687 43.6553 30.595 39.4746 32.2888 38.3582L33.0202 39.4746Z" fill="#5B81A9"/>
<path d="M42.5298 35.7022C37.941 40.8145 32.8929 38.3713 30.9424 36.5106C31.7123 38.0197 32.8544 38.8846 33.3292 39.1284C38.8727 42.7856 42.7223 38.5894 43.1843 38.3585C47.2803 33.6465 44.9936 29.0808 43.3383 27.387C45.1553 31.175 43.5564 34.5088 42.5298 35.7022Z" fill="#DC9002"/>
<path d="M33.2319 27.6175C29.8134 30.4816 30.2677 34.765 30.9221 36.5487C28.5507 32.3603 30.8281 28.5286 32.368 27.0785C35.4477 24.0912 39.7337 24.9741 41.3762 25.8851C36.4101 24.3838 33.8093 27.348 33.2319 27.6175Z" fill="#FBC157"/>
</svg>
