<svg width="54" height="27" viewBox="0 0 54 27" fill="none" xmlns="http://www.w3.org/2000/svg">
<path fill-rule="evenodd" clip-rule="evenodd" d="M16.4965 18.9827C15.8149 17.8047 14.9458 16.714 13.8474 15.8588H4.86874C3.48821 16.723 0.581719 20.1585 0 26.9874H18.7478C18.7475 26.976 18.7472 26.9645 18.7469 26.9529H14.6257C14.905 23.6742 15.6244 21.0379 16.4965 18.9827Z" fill="#4C6C8D"/>
<path d="M4.92969 15.8505C6.20483 18.053 10.0387 21.3895 15.173 17.1151C13.8557 15.3657 9.96282 12.6637 4.92969 15.8505Z" fill="#435E7A"/>
<circle cx="9.35502" cy="11.2359" r="6.38627" fill="#FFA600"/>
<path d="M5.49677 16.737C2.03175 19.8985 0.933645 24.8305 0.817723 26.9487H0.0273438C0.609063 20.1704 3.50501 16.737 4.89608 15.8202L5.49677 16.737Z" fill="#5B81A9"/>
<path d="M13.3091 13.6388C9.54061 17.8372 5.3948 15.8307 3.79297 14.3027C4.42527 15.542 5.36319 16.2523 5.75311 16.4525C10.3057 19.4559 13.4672 16.0099 13.8466 15.8202C17.2104 11.9505 15.3325 8.20094 13.9731 6.80988C15.4653 9.92081 14.1522 12.6587 13.3091 13.6388Z" fill="#DC9002"/>
<path d="M5.67083 6.99925C2.86341 9.35142 3.23647 12.8691 3.77392 14.334C1.82643 10.8942 3.69676 7.74746 4.96137 6.55662C7.49059 4.10329 11.0104 4.82833 12.3593 5.57656C8.28097 4.34357 6.14506 6.77794 5.67083 6.99925Z" fill="#FBC157"/>
<path fill-rule="evenodd" clip-rule="evenodd" d="M35.1162 26.9544H38.7669C38.7237 25.2549 38.2949 22.3203 37.1159 19.4407C38.1215 17.4659 39.2603 16.3113 39.982 15.8596H48.9607C52.7293 18.7934 53.7978 24.501 53.8611 26.9881H35.1133C35.1142 26.9769 35.1152 26.9656 35.1162 26.9544Z" fill="#4C6C8D"/>
<path d="M40.043 15.8512C41.3181 18.0538 45.152 21.3902 50.2863 17.1158C48.969 15.3665 45.0761 12.6644 40.043 15.8512Z" fill="#435E7A"/>
<circle cx="44.4683" cy="11.2359" r="6.38627" fill="#FFA600"/>
<path d="M48.4166 13.6388C44.648 17.8372 40.5022 15.8307 38.9004 14.3027C39.5327 15.542 40.4706 16.2523 40.8605 16.4525C45.4131 19.4559 48.5746 16.0099 48.954 15.8202C52.3179 11.9505 50.4399 8.20094 49.0805 6.80988C50.5727 9.92081 49.2596 12.6587 48.4166 13.6388Z" fill="#DC9002"/>
<path d="M40.6106 16.7071L40.0332 15.8217C38.9553 16.3453 37.6335 18.478 37.1074 19.4789L37.6464 20.8263C38.4163 19.1632 39.9433 17.3872 40.6106 16.7071Z" fill="#5B81A9"/>
<path d="M38.1487 26.9476H15.3203C16.0286 18.6324 19.5678 14.4491 21.2488 13.3969H32.1818C36.7706 16.9693 38.0717 23.9192 38.1487 26.9476Z" fill="#4C6C8D"/>
<path d="M21.3262 13.397C22.8789 16.079 27.5472 20.1416 33.799 14.9369C32.195 12.8068 27.4548 9.51659 21.3262 13.397Z" fill="#435E7A"/>
<circle cx="26.7197" cy="7.77629" r="7.77629" fill="#FFA600"/>
<path d="M22.0193 14.4746C17.8001 18.3243 16.4629 24.3297 16.3218 26.909H15.3594C16.0677 18.6553 19.594 14.4746 21.2878 13.3582L22.0193 14.4746Z" fill="#5B81A9"/>
<path d="M31.5289 10.7022C26.9401 15.8145 21.8919 13.3713 19.9414 11.5106C20.7113 13.0197 21.8534 13.8846 22.3282 14.1284C27.8717 17.7856 31.7213 13.5894 32.1833 13.3585C36.2793 8.6465 33.9926 4.08081 32.3373 2.38696C34.1543 6.17502 32.5554 9.50882 31.5289 10.7022Z" fill="#DC9002"/>
<path d="M22.2299 2.61737C18.8114 5.48151 19.2657 9.76489 19.9201 11.5486C17.5488 7.36013 19.8262 3.52844 21.3661 2.07841C24.4458 -0.908924 28.7317 -0.0260633 30.3742 0.885019C25.4082 -0.616345 22.8074 2.3479 22.2299 2.61737Z" fill="#FBC157"/>
</svg>
