<svg width="57" height="53" viewBox="0 0 57 53" fill="none" xmlns="http://www.w3.org/2000/svg">
<path fill-rule="evenodd" clip-rule="evenodd" d="M12.442 42.8002C7.06962 27.9499 17.4831 16.6301 23.3613 12.8265H37.5019C42.4706 16.7828 45.541 21.0464 47.3337 25.1385H45.2641C44.2108 25.1385 43.357 25.9923 43.357 27.0456C43.357 28.0989 44.2108 28.9527 45.2641 28.9527H48.6704C48.9299 29.9286 49.123 30.8847 49.259 31.8136H45.2641C44.2108 31.8136 43.357 32.6674 43.357 33.7207C43.357 34.774 44.2108 35.6278 45.2641 35.6278H49.5201C49.51 36.6411 49.436 37.5991 49.315 38.4887H45.2641C44.2108 38.4887 43.357 39.3425 43.357 40.3958C43.357 41.4491 44.2108 42.3029 45.2641 42.3029H48.3979C48.3342 42.4756 48.2691 42.6415 48.2029 42.8002C47.9041 43.6558 47.5322 44.4417 47.0993 45.1629H45.2641C44.2108 45.1629 43.357 46.0168 43.357 47.07C43.357 47.682 43.6452 48.2267 44.0934 48.5757C39.2595 52.4446 32.0733 52.9718 28.1659 52.5731C17.3338 51.9179 13.1699 45.7849 12.442 42.8002Z" fill="#FFA600"/>
<path d="M33.7461 52.4894C40.5016 49.1116 47.2572 34.8968 48.9461 28.8449C50.3385 34.2986 49.6455 39.743 48.1016 43.2005C45.1515 49.8075 37.8113 51.935 33.7461 52.4894Z" fill="#DC9002"/>
<path d="M25.5315 1.0285C23.477 1.14633 23.477 3.04138 23.7338 3.97418L26.0965 10.2583H34.7254L36.8312 3.97418C37.3243 1.93184 36.0094 1.15942 35.2903 1.0285H25.5315Z" fill="#FFA600"/>
<path d="M35.1394 3.23736C35.6736 2.21619 34.4717 1.3063 33.804 0.979004H35.3962C36.4646 1.13611 36.9371 2.55003 37.0398 3.23736L34.6258 10.2088H32.8281L35.1394 3.23736Z" fill="#FBC157"/>
<rect x="22.4453" y="8.07593" width="15.6147" height="5.2413" rx="2.62065" fill="#DC9002"/>
<circle cx="30.3064" cy="32.7536" r="11.9021" fill="#4C6C8D"/>
<path d="M31.1667 25.7734C31.0195 26.4602 31.2485 26.869 31.9107 27.2288C32.9818 27.8093 33.4969 28.8314 33.6032 30.0496C33.6687 30.8346 33.1944 31.4314 32.4831 31.4805C31.7554 31.5377 31.2321 31.0472 31.1585 30.2459C31.0931 29.5345 30.5698 29.0194 29.9157 29.0358C29.2616 29.044 28.722 29.5836 28.7138 30.2377C28.6974 30.9163 29.1798 31.456 29.8994 31.4805C31.9107 31.5459 33.0881 32.8787 33.4479 34.1133C33.9712 35.863 33.1535 37.7027 31.4856 38.4795C31.2321 38.5939 31.134 38.7166 31.1585 38.9864C31.183 39.2317 31.1667 39.477 31.1585 39.7223C31.134 40.4173 30.6107 40.9487 29.9402 40.9487C29.2698 40.9487 28.6729 40.4173 28.722 39.7386C28.7792 38.9864 28.5666 38.5612 27.8634 38.1688C26.7923 37.5719 26.2854 36.5171 26.2445 35.2743C26.22 34.5385 26.7106 33.9988 27.4056 33.9498C28.0679 33.9089 28.632 34.4322 28.6974 35.1517C28.7628 35.9039 29.2207 36.3781 29.8912 36.3945C30.5371 36.4027 31.0686 35.9284 31.1422 35.2825C31.2076 34.702 30.7906 34.1133 30.1855 33.9906C29.8258 33.9171 29.4497 33.9171 29.0981 33.8435C27.5691 33.5001 26.4244 32.2164 26.2609 30.6874C26.0974 29.1175 26.915 27.6294 28.3704 26.9672C28.6565 26.8363 28.7383 26.681 28.722 26.3866C28.6974 25.9369 28.7056 25.4872 28.7138 25.0375C28.722 24.318 29.2534 23.7784 29.9321 23.7784C30.6189 23.7784 31.1422 24.318 31.1585 25.0375C31.1667 25.2828 31.1667 25.5281 31.1667 25.7734Z" fill="white"/>
<path d="M21.3746 17.5067C18.8006 30.7847 7.57767 35.7421 2.28795 36.561C-3.06494 21.9727 7.46655 10.7185 13.4014 6.91491C12.5634 6.39078 12.3327 5.16781 12.3221 4.62184C12.4529 2.96209 13.7945 2.29237 14.4489 2.16498H19.4659C22.6507 8.10512 22.0653 14.8679 21.3746 17.5067Z" fill="white" fill-opacity="0.25"/>
<rect x="42.293" y="24.622" width="14.3553" height="5.05731" rx="1.74237" fill="#4C6C8D"/>
<path d="M42.293 39.8751C42.293 38.9128 43.0731 38.1328 44.0353 38.1328H54.9059C55.8682 38.1328 56.6483 38.9128 56.6483 39.8751V41.4477C56.6483 42.41 55.8682 43.1901 54.9059 43.1901H44.0353C43.0731 43.1901 42.293 42.41 42.293 41.4477V39.8751Z" fill="#4C6C8D"/>
<path d="M42.293 46.6304C42.293 45.6681 43.0731 44.8881 44.0353 44.8881H54.9059C55.8682 44.8881 56.6483 45.6681 56.6483 46.6304V48.203C56.6483 49.1653 55.8682 49.9454 54.9059 49.9454H44.0353C43.0731 49.9454 42.293 49.1653 42.293 48.203V46.6304Z" fill="#425F7C"/>
<path d="M42.293 33.1215C42.293 32.1592 43.0731 31.3792 44.0353 31.3792H54.9059C55.8682 31.3792 56.6483 32.1592 56.6483 33.1215V34.6941C56.6483 35.6564 55.8682 36.4365 54.9059 36.4365H44.0353C43.0731 36.4365 42.293 35.6564 42.293 34.6941V33.1215Z" fill="#4C6C8D"/>
<path d="M56.65 27.5784V25.4673L52.4277 29.2673H54.9611C55.8938 29.2673 56.65 28.5111 56.65 27.5784Z" fill="#425F7C"/>
<path d="M56.649 34.7552V33.0663C56.649 32.1335 55.8928 31.3774 54.9601 31.3774H51.5823L46.5156 36.444H54.9601C55.8928 36.444 56.649 35.6879 56.649 34.7552Z" fill="#425F7C"/>
<path d="M56.6466 41.5105V39.8216C56.6466 38.8889 55.8904 38.1328 54.9577 38.1328H46.091L42.291 41.5105C42.291 42.5239 43.1355 43.0587 43.5577 43.1994H54.9577C55.8904 43.1994 56.6466 42.4433 56.6466 41.5105Z" fill="#425F7C"/>
</svg>
