<svg width="76" height="76" viewBox="0 0 76 76" fill="none" xmlns="http://www.w3.org/2000/svg">
<rect width="76" height="76" rx="16.8889" fill="#EAEEF2"/>
<path fill-rule="evenodd" clip-rule="evenodd" d="M18.6256 52.8004C13.2532 37.95 23.6667 26.6302 29.5449 22.8267H43.6855C48.6542 26.7829 51.7246 31.0465 53.5173 35.1386H51.4481C50.3949 35.1386 49.541 35.9925 49.541 37.0457C49.541 38.099 50.3949 38.9529 51.4481 38.9529H54.854C55.1135 39.9288 55.3066 40.8848 55.4426 41.8137H51.4481C50.3949 41.8137 49.541 42.6676 49.541 43.7208C49.541 44.7741 50.3949 45.628 51.4481 45.628H55.7037C55.6936 46.6412 55.6196 47.5992 55.4986 48.4888H51.4481C50.3949 48.4888 49.541 49.3427 49.541 50.3959C49.541 51.4492 50.3949 52.3031 51.4481 52.3031H54.5815C54.5178 52.4758 54.4527 52.6416 54.3865 52.8004C54.0877 53.656 53.7158 54.4418 53.2829 55.163H51.4481C50.3949 55.163 49.541 56.0169 49.541 57.0702C49.541 57.6821 49.8292 58.2266 50.2772 58.5756C45.4433 62.4447 38.257 62.9719 34.3494 62.5732C23.5174 61.9181 19.3535 55.785 18.6256 52.8004Z" fill="#FFA600"/>
<path d="M39.9297 62.4894C46.6852 59.1116 53.4408 44.8968 55.1297 38.845C56.5221 44.2987 55.8291 49.7431 54.2852 53.2005C51.3351 59.8075 43.9949 61.9351 39.9297 62.4894Z" fill="#DC9002"/>
<path d="M31.7161 11.0286C29.6616 11.1464 29.6616 13.0414 29.9184 13.9742L32.281 20.2584H40.9099L43.0158 13.9742C43.5089 11.9319 42.194 11.1595 41.4749 11.0286H31.7161Z" fill="#FFA600"/>
<path d="M41.324 13.2374C41.8582 12.2162 40.6563 11.3063 39.9886 10.979H41.5808C42.6492 11.1361 43.1217 12.55 43.2244 13.2374L40.8104 20.2088H39.0127L41.324 13.2374Z" fill="#FBC157"/>
<rect x="28.6289" y="18.0759" width="15.6147" height="5.2413" rx="2.62065" fill="#DC9002"/>
<circle cx="36.491" cy="42.7537" r="11.9021" fill="#4C6C8D"/>
<path d="M37.3493 35.7733C37.2021 36.4602 37.4311 36.869 38.0934 37.2287C39.1645 37.8093 39.6796 38.8313 39.7859 40.0496C39.8513 40.8345 39.377 41.4314 38.6657 41.4804C37.938 41.5377 37.4147 41.0471 37.3411 40.2458C37.2757 39.5345 36.7524 39.0194 36.0983 39.0357C35.4442 39.0439 34.9046 39.5835 34.8964 40.2376C34.88 40.9163 35.3625 41.4559 36.082 41.4804C38.0934 41.5459 39.2707 42.8786 39.6305 44.1132C40.1538 45.863 39.3362 47.7026 37.6682 48.4794C37.4147 48.5939 37.3166 48.7165 37.3411 48.9863C37.3657 49.2316 37.3493 49.4769 37.3411 49.7222C37.3166 50.4172 36.7933 50.9487 36.1229 50.9487C35.4524 50.9487 34.8555 50.4172 34.9046 49.7386C34.9618 48.9863 34.7492 48.5612 34.0461 48.1687C32.975 47.5718 32.468 46.5171 32.4271 45.2743C32.4026 44.5384 32.8932 43.9988 33.5882 43.9497C34.2505 43.9088 34.8146 44.4321 34.88 45.1516C34.9455 45.9038 35.4033 46.3781 36.0738 46.3944C36.7197 46.4026 37.2512 45.9284 37.3248 45.2824C37.3902 44.7019 36.9732 44.1132 36.3681 43.9906C36.0084 43.917 35.6323 43.917 35.2807 43.8434C33.7517 43.5 32.607 42.2163 32.4435 40.6873C32.28 39.1175 33.0976 37.6294 34.553 36.9671C34.8392 36.8363 34.9209 36.6809 34.9046 36.3866C34.88 35.9369 34.8882 35.4872 34.8964 35.0375C34.9046 34.318 35.436 33.7783 36.1147 33.7783C36.8015 33.7783 37.3248 34.318 37.3411 35.0375C37.3493 35.2828 37.3493 35.5281 37.3493 35.7733Z" fill="white"/>
<path d="M37.5582 33.3417C34.9842 46.6197 23.7613 51.5771 18.4715 52.3961C13.1187 37.8078 23.6501 26.5535 29.585 22.7499C28.747 22.2258 28.5163 21.0028 28.5057 20.4569C28.6365 18.7971 29.9781 18.1274 30.6325 18H35.6495C38.8342 23.9401 38.2489 30.7029 37.5582 33.3417Z" fill="white" fill-opacity="0.25"/>
<rect x="47.2939" y="34.6221" width="14.3553" height="5.05731" rx="1.74237" fill="#4C6C8D"/>
<path d="M47.293 49.8752C47.293 48.9129 48.0731 48.1328 49.0353 48.1328H59.9059C60.8682 48.1328 61.6483 48.9129 61.6483 49.8752V51.4478C61.6483 52.41 60.8682 53.1901 59.9059 53.1901H49.0353C48.0731 53.1901 47.293 52.41 47.293 51.4478V49.8752Z" fill="#4C6C8D"/>
<path d="M47.293 56.6305C47.293 55.6683 48.0731 54.8882 49.0353 54.8882H59.9059C60.8682 54.8882 61.6483 55.6683 61.6483 56.6306V58.2031C61.6483 59.1654 60.8682 59.9455 59.9059 59.9455H49.0353C48.0731 59.9455 47.293 59.1654 47.293 58.2031V56.6305Z" fill="#425F7C"/>
<path d="M47.293 43.1215C47.293 42.1592 48.0731 41.3792 49.0353 41.3792H59.9059C60.8682 41.3792 61.6483 42.1592 61.6483 43.1215V44.6941C61.6483 45.6564 60.8682 46.4365 59.9059 46.4365H49.0353C48.0731 46.4365 47.293 45.6564 47.293 44.6941V43.1215Z" fill="#4C6C8D"/>
<path d="M61.65 37.5784V35.4673L57.4277 39.2673H59.9611C60.8938 39.2673 61.65 38.5111 61.65 37.5784Z" fill="#425F7C"/>
<path d="M61.649 44.7552V43.0663C61.649 42.1336 60.8928 41.3774 59.9601 41.3774H56.5823L51.5156 46.4441H59.9601C60.8928 46.4441 61.649 45.688 61.649 44.7552Z" fill="#425F7C"/>
<path d="M61.6466 51.5106V49.8217C61.6466 48.889 60.8904 48.1328 59.9577 48.1328H51.091L47.291 51.5106C47.291 52.5239 48.1355 53.0587 48.5577 53.1995H59.9577C60.8904 53.1995 61.6466 52.4433 61.6466 51.5106Z" fill="#425F7C"/>
</svg>
